/* XPM */
static char *graphic[] = {
/* width height num_colors chars_per_pixel */
"16 16 73 1", 
/* colors */
"  c #F1E2EB",
". c #F8EFF4",
"X c #FDFDFD",
"o c #FBFAFA",
"O c #BA5B92",
"+ c #F4EBF0",
"@ c #958689",
"# c #E6E2E3",
"$ c #A29497",
"% c #B8568F",
"& c #AA3679",
"* c #C2B9BB",
"= c #CEBFC6",
"- c #AFA4A6",
"; c #E2DEDF",
": c #E0DBDC",
"> c #EDD6E4",
", c #CDC6C7",
"< c #ADA1A4",
"1 c #B44C88",
"2 c #B44C88",
"3 c #EBE8E9",
"4 c #B44A87",
"5 c #B44C89",
"6 c #AD3B7D",
"7 c #A19395",
"8 c #D5C2CB",
"9 c #AB3679",
"0 c #CBBBC1",
"q c #AB367A",
"w c #EED6E4",
"e c #F3E4ED",
"r c #ACA0A2",
"t c #DFDADB",
"y c #FFFFFF",
"u c #B54E89",
"i c #B5508B",
"p c #FDFCFC",
"a c #EEEBEC",
"s c #DBD6D7",
"d c #B54E8A",
"f c #EACEDE",
"g c #D8C5CE",
"h c #E8E4E5",
"j c #C1B0B7",
"k c #D5CFD0",
"l c #C2BABB",
"z c #F4E6EE",
"x c #E2DDDE",
"c c #F4E4ED",
"v c #BCB3B4",
"b c #AFA3A6",
"n c #BEB4B6",
"m c #DED9DA",
"M c #FEFEFE",
"N c #E8DCE2",
"B c #AC3B7C",
"V c #B44B87",
"C c #FCFBFB",
"Z c #B8ADAF",
"A c #A5989A",
"S c #F3E9EE",
"D c #EAD9E2",
"F c #EBCEDF",
"G c #AB3779",
"H c #AA3679",
"J c #E5E2E2",
"K c #A19496",
"L c #D6CFD1",
"P c #BEACB3",
"I c #DED1D7",
"U c #AB377A",
"Y c #F3E5ED",
/* pixels */
"B1iiiiiiiiiiii1B",
"VFYDezzzz 8gYzf4",
"dcMstXyyyx$m3Xeu",
"dcyoktXyM,@<vCeu",
"dcyyoktp:7AZ#yeu",
"dcyyyokLrbapyyeu",
"dcyyyM;*lJyyyyeu",
"dcyyM:Kn-rhMyyeu",
"5w..S0jNIP=+..>2",
"6%OOOOOOOOOOOO%6",
"UUUUUUUUUUUUUUUU",
"UUUUUUUUUUUUUUUU",
"UUUUUUUUUUUUUUUU",
"UUUUUUUUUUUUUUUU",
"9UUUUUUUUUUUUUUq",
"HG&&&&&&&&&&&&GH"
};
